<?xml version="1.0" encoding="utf-8"?>
<!-- Svg Vector Icons : http://www.onlinewebfonts.com/icon -->
<!DOCTYPE svg PUBLIC "-//W3C//DTD SVG 1.1//EN" "http://www.w3.org/Graphics/SVG/1.1/DTD/svg11.dtd">
<svg version="1.1" xmlns="http://www.w3.org/2000/svg" xmlns:xlink="http://www.w3.org/1999/xlink" x="0px" y="0px" viewBox="0 0 1000 1000" enable-background="new 0 0 1000 1000" xml:space="preserve">
<metadata> Svg Vector Icons : http://www.onlinewebfonts.com/icon </metadata>
<g><path d="M798.5,10H201.5C95.9,10,10,90.5,10,189.6v620.9C10,909.5,95.9,990,201.5,990h596.9C904.1,990,990,909.5,990,810.4V189.6C990,90.5,904.1,10,798.5,10z M316.1,797.4H161.8v-54.8h154.3V797.4z M316.1,668.8H161.8V614h154.3V668.8z M316.1,540.3H161.8v-54.9h154.3V540.3z M577.1,797.4H422.8v-54.8h154.3V797.4z M577.1,662.4H422.8v-54.9h154.3V662.4z M577.1,527.4H422.8v-54.9h154.3V527.4z M577.1,392.4H422.8v-54.9h154.3V392.4z M577.1,257.4H422.8v-54.8h154.3V257.4z M847.1,797.4H692.8v-54.8h154.3V797.4z M847.1,668.8H692.8V614h154.3V668.8z M847.1,540.3H692.8v-54.9h154.3V540.3z M847.1,411.7H692.8v-54.8h154.3V411.7z"/></g>
</svg>